<?xml version="1.0" encoding="UTF-8"?>
<svg id="Layer_1" data-name="Layer 1" xmlns="http://www.w3.org/2000/svg" viewBox="0 0 2000 2000">
  <defs>
    <style>
      .cls-1 {
        fill: #fff;
      }

      .cls-2 {
        fill: none;
      }
    </style>
  </defs>
  <polygon class="cls-2" points="0 0 2000 0 2000 2000 0 2000 0 0 0 0"/>
  <path class="cls-1" d="m1261.62,1670l-7.51,7.67c-90.15,90.63-199.25,135.95-328.24,135.95H65.24v-265.95h861.16c27.4,0,53.27-4.97,78.17-14.96,24.39-9.96,45.8-23.91,64.23-41.83l6.74-6.96,186.08,186.08h0Z"/>
  <path class="cls-1" d="m528.91,1147.2c-128.5,0-238.07-45.32-328.22-135.46-90.17-90.15-135.51-200.22-135.51-330.23s45.32-235.55,135.51-326.21c88.62-91.67,198.21-137.47,328.22-137.47h863.15l-268.49,265.95h-595.65c-27.31,0-53.27,5.13-77.73,14.96-24.77,10.03-46.31,24.39-64.74,42.82-18.43,18.43-32.37,39.86-42.36,64.23-9.94,24.41-14.94,49.85-14.94,75.72,0,55.3,18.91,103.09,57.29,142.95,38.33,39.86,86.15,59.79,142.44,59.79h401.08L1597.83,217.83h374.55l-797.88,797.88,797.88,797.88h-374.55l-670.77-666.4h-398.19.04Z"/>
</svg>