<?xml version="1.0" encoding="utf-8"?>
<!-- Generator: Adobe Illustrator 27.3.1, SVG Export Plug-In . SVG Version: 6.00 Build 0)  -->
<svg version="1.1" id="Layer_1" xmlns="http://www.w3.org/2000/svg" xmlns:xlink="http://www.w3.org/1999/xlink" x="0px" y="0px"
	 viewBox="0 0 2000 2000" style="enable-background:new 0 0 2000 2000;" xml:space="preserve">
<style type="text/css">
	.st0{fill:none;}
	.st1{fill:#FFFFFF;}
</style>
<polygon class="st0" points="0,0 2000,0 2000,2000 0,2000 0,0 "/>
<path class="st1" d="M1261.6,1670l-7.5,7.7c-90.1,90.6-199.2,135.9-328.2,135.9H65.2v-266h861.2c27.4,0,53.3-5,78.2-15
	c24.4-10,45.8-23.9,64.2-41.8l6.7-7L1261.6,1670L1261.6,1670L1261.6,1670z"/>
<path class="st1" d="M528.9,1147.2c-128.5,0-238.1-45.3-328.2-135.5C110.5,921.6,65.2,811.5,65.2,681.5S110.5,446,200.7,355.3
	c88.6-91.7,198.2-137.5,328.2-137.5h863.1l-268.5,266H527.9c-27.3,0-53.3,5.1-77.7,15c-24.8,10-46.3,24.4-64.7,42.8
	c-18.4,18.4-32.4,39.9-42.4,64.2c-9.9,24.4-14.9,49.8-14.9,75.7c0,55.3,18.9,103.1,57.3,143c38.3,39.9,86.1,59.8,142.4,59.8h397.4
	c1.2,0,2.5,0,3.7,0l668.8-666.4h374.5l-797.9,797.9l797.9,797.9h-374.5l-670.8-666.4h-0.7L528.9,1147.2L528.9,1147.2L528.9,1147.2z"
	/>
</svg>
